# xmcd
#
# Track frame offsets:
#	182
#	19382
#	37020
#	57295
#	73157
#	83582
#	100817
#	118607
#	127532
#	143357
#	155432
#	178007
#	196082
#	206005
#	227570
#
# Disc length: 3166 seconds
#
# Revision: 1
# Processed by: cddbd v1.5.2PL0 Copyright (c) Steve Scherf et al.
# Submitted via: audiograbber 1.83.01
#
DISCID=c00c5c0f
DTITLE=AA.VV. - 045 - Cantastorie
DYEAR=1994
DGENRE=Folklore
TTITLE0=Canto vivo - La bella Mariansun
TTITLE1=E. Guggino - A principessa di Carini
TTITLE2=A. Sparagna - Storia di Ruccano
TTITLE3=Barabàn - E l'Emilia va a Robi
TTITLE4=M. Salvatore - Padrone mio ti voglio arricchire
TTITLE5=La Ciapa Rusa - 'Nsumma al pont ad Mantua
TTITLE6=G. Rotondaro e Orch Mongibello - La vita di Turi Giuliano (prima parte)
TTITLE7=F. Trincale - La balilla siciliana
TTITLE8=Canto vivo - Gentil galando
TTITLE9=N. Salamone - Favi amari
TTITLE10=Calicanto - Riccardo e Germonda
TTITLE11=Fratelli Mancuso - Historia della bella Aghata prisa dalli cursali di 
TTITLE11=Barbarossa
TTITLE12=A. Nuvoloni - Il cantastorie abruzzese
TTITLE13=C. Errigo e Complesso Calabrisella - Peppi Musulino (prima parte)
TTITLE14=M. Salvatore - La nascita
EXTD=
EXTT0=
EXTT1=
EXTT2=
EXTT3=
EXTT4=
EXTT5=
EXTT6=
EXTT7=
EXTT8=
EXTT9=
EXTT10=
EXTT11=
EXTT12=
EXTT13=
EXTT14=
PLAYORDER=
